# xmcd CD database file
#
# Track frame offsets:
#	150
#	18356
#	31660
#	48508
#	66626
#	82360
#	105112
#	129468
#	149579
#	179060
#	196314
#	217747
#	243045
#	261759
#
# Disc length: 3762 seconds
#
# Revision: 0
# Processed by: cddbd v1.5.2PL0 Copyright (c) Steve Scherf et al.
# Submitted via: CDex 1.51
#
DISCID=c60eb00e
DTITLE=John Zorn - The Concealed
DYEAR=2012
DGENRE=Jazz
TTITLE0=Persepolis
TTITLE1=The Hidden Book
TTITLE2=Passage To Essentuki
TTITLE3=Pathway Of Fire
TTITLE4=Towards Kafiristan
TTITLE5=Kavanah
TTITLE6=Back To Bokhara
TTITLE7=The Silver Thread
TTITLE8=The Dervish
TTITLE9=The Way Of The Sly Man
TTITLE10=Amu Darya
TTITLE11=A Portrait Of Moses Cordovero
TTITLE12=Visitation Of The Night Angels
TTITLE13=Life Is Real Only Then, When 'I Am'
EXTD=YEAR: 2012
EXTT0=
EXTT1=
EXTT2=
EXTT3=
EXTT4=
EXTT5=
EXTT6=
EXTT7=
EXTT8=
EXTT9=
EXTT10=
EXTT11=
EXTT12=
EXTT13=
PLAYORDER=
